<?xml version="1.0" encoding="utf-8"?>
<!-- Generator: Adobe Illustrator 19.1.0, SVG Export Plug-In . SVG Version: 6.00 Build 0)  -->
<svg version="1.1" id="Layer_1" xmlns="http://www.w3.org/2000/svg" xmlns:xlink="http://www.w3.org/1999/xlink" x="0px" y="0px"
	 viewBox="0 0 2611.1 1643.7" style="enable-background:new 0 0 2611.1 1643.7;" xml:space="preserve">
<style type="text/css">
	.st0{fill:none;}
	.st1{fill:#F26522;}
	.st2{font-family:'ArialMT';}
	.st3{font-size:194.8674px;}
	.st4{fill:none;stroke:#000000;stroke-width:43;stroke-miterlimit:10;}
</style>
<path d="M918,778.8c-17.3-42-35.4-83.6-54.4-125C761.4,676,710.3,783.5,710.3,901.6c0,129.2,70,244.9,192.9,244.9
	c22,0,42.3-3.6,60.8-10.3C987.1,1013,965,893,918,778.8z M753.5,428.3c-6.9-13.6-14.2-27-21.6-40.4h-43.5l7.1-35.8h15.8
	c-21-35.6-43.4-70.6-66.9-104.6c-8.4,7-16.4,15.5-23.7,25.7c-11.1,15.3-19.7,33.3-25.9,54.1c-6.2,20.8-9.3,42.1-9.3,63.7
	c0,32.7,8.3,57.9,24.9,75.7c16.6,17.7,40.1,26.6,70.6,26.6c27,0,50.2-9.2,69.4-27.5c5-4.8,9.7-10.2,14-16.1
	C760.8,442.6,757.1,435.5,753.5,428.3z M898.7,1210.3c-159.7,0-271.8-123.8-271.8-306.8c0-162.3,85.3-277.1,209.2-308.8
	c-11.4-24.1-23.1-48-34.9-71.9h-29l2.9-35.4c-13.7,14.9-29.2,26.1-46.5,33.5c-17.3,7.4-36.3,11.1-57.2,11.1
	c-41.2,0-73.3-12.5-96.1-37.5c-22.8-25-34.3-60.1-34.3-105.1c0-28.8,4.5-56.1,13.4-82c9-25.8,21.8-48.5,38.5-68.1
	c8.5-9.7,17.8-18.2,27.8-25.4c-66.1-89.4-152.1-110.9-257.1-70.4c-22.9,8.8-44.6,22.1-65.1,35.9c-143,96.4-229,225.3-230.1,403.1
	c-0.7,112,23.1,219.8,66.4,321.3c60,140.7,127,278.5,193.7,416.3c34.5,71.2,80.8,135.9,118.5,205.6c36.5,53.7,83.8,84.1,151.2,69.9
	c78.2-16.4,147.1-52.8,199.9-111.5c72.4-80.4,119.2-175.1,148.7-277.6C931.3,1209,915.1,1210.3,898.7,1210.3z M146.9,496.3
	c-2.3-1.8,3.2-79.1,1-81c5.4-51.2,66.7-118.7,80.4-136.7c34.8-19.5,37.4-8.9,40.2-6.7C287.4,314.6,175.9,488.2,146.9,496.3z
	 M438.3,1186.2c-31.8-72.7-66.6-122.7-99.5-194.9c-1.9-4.1,1.5-11.8,0.3-16.2c2.4-1.2,20.8,2.6,23.2,1.4
	c21.9,41.7,35.8,71.5,59.7,112c10.2,17.3,27.5,30.4,40.9,45.9c14.2,16.4,0.4,22.5,8.2,45.1c13,14.2,17.8,18.2,26,39.4
	C487.3,1251.9,450.3,1213.7,438.3,1186.2z M520.4,1430.3c-3.8-25.7-20.3-71.3-24.1-96.9c-28.8-113.4-1-62.2,9.6-79.8
	c43.8,29.4,74.7,161.9,99,202.7C636.1,1516.1,534.5,1536.8,520.4,1430.3z"/>
<g>
	<path d="M907.7,585.8c-25,0-49,3-71.7,8.8c9.3,19.6,18.6,39.3,27.6,59.1c12.7-2.8,26.2-4.2,40.4-4.2
		c130.1,0,192.9,125.6,192.9,245.8c0,112.9-47.3,210-133,240.9c-1.4,7.3-2.9,14.6-4.6,21.9c-3.8,16.3-7.9,32.4-12.5,48.4
		c131.6-20.8,232.7-128.7,232.7-314.8C1179.6,712.3,1072.8,585.8,907.7,585.8z"/>
	<path d="M1281,1200.4V595.7h85.2L1560,901.6c44.9,70.9,79.9,134.6,108.6,196.5l1.8-0.9c-7.2-80.7-9-154.3-9-248.5v-253h73.6v604.7
		h-79l-192-306.8c-42.2-67.3-82.5-136.4-113-201.9l-2.7,0.9c4.5,76.3,6.3,148.9,6.3,249.4v258.4H1281z"/>
	<path d="M1949.4,595.7v604.7h-78.1V595.7H1949.4z"/>
	<path d="M2416.8,1200.4l-77.2-133.7c-31.4-51.1-51.1-84.3-70-119.3h-1.8c-17,35-34.1,67.3-65.5,120.2l-72.7,132.8H2040l184.8-305.9
		l-177.6-298.8h90.6l79.8,141.8c22.4,39.5,39.5,70,55.6,102.3h2.7c17-35.9,32.3-63.7,54.7-102.3l82.5-141.8h89.7L2319,890
		l188.4,310.4H2416.8z"/>
</g>
<g>
	<path d="M870.3,454.7l50.4-239.9h38.5l-10.1,44.6c13.4-19,25.2-32.1,35.4-39.5c10.2-7.4,21-11.1,32.5-11.1c2.7,0,5.6,0.2,8.6,0.4
		c3.1,0.3,6.3,0.7,9.7,1.3l-10.1,45.5c-0.3,0-0.7,0-1.1,0c-5.4-0.6-9.4-0.9-12.1-0.9c-19.9,0-36.1,6.9-48.8,20.8
		c-12.7,13.9-22.1,35.1-28.2,63.6l-24.9,115.1H870.3z"/>
	<path d="M1260.7,214.8l-50.4,239.9h-36.7l7.4-36.3c-13.3,13.4-27.1,23.4-41.6,30c-14.4,6.6-29.8,9.9-46.3,9.9
		c-21.2,0-37.2-4.3-47.9-12.9c-10.8-8.6-16.1-21.4-16.1-38.4c0-4.6,0.3-9.4,0.9-14.4c0.6-5,1.5-10.1,2.7-15.3l34.5-162.4h40.8
		l-33.6,156.1l-0.2,1.3c-2.2,11.2-3.4,19.6-3.4,25.1c0,8.7,3.2,15.4,9.6,20.3c6.4,4.9,15.3,7.3,26.7,7.3c22.8,0,41.8-7.6,56.8-22.8
		c15-15.2,25.6-37.6,31.7-67.2l25.3-120.1H1260.7z"/>
	<path d="M1255.6,550.6l67.4-335.8h37.2l-6.9,34.3c10.6-13.3,22.4-23.3,35.3-29.9c12.9-6.6,27-10,42.2-10c27.8,0,49.5,8.8,65.2,26.4
		c15.7,17.6,23.5,42,23.5,73.2c0,20.5-3.1,40.1-9.4,58.9c-6.3,18.8-15.2,35.5-26.9,50.2c-11.4,14.3-24.5,25.3-39.3,32.8
		c-14.9,7.5-30.7,11.3-47.4,11.3c-16.4,0-30.9-3.6-43.5-10.8c-12.5-7.2-23.3-18-32.3-32.5l-27.1,131.7H1255.6z M1422.5,242.8
		c-24.3,0-45,11.7-62,35.1c-17,23.4-25.5,52.2-25.5,86.6c0,20,5,35.5,14.9,46.6c9.9,11.1,23.8,16.6,41.6,16.6
		c24.2,0,44.6-11.6,61.3-34.9c16.7-23.3,25-52.3,25-87.1c0-19.7-4.9-35.1-14.6-46.1C1453.3,248.3,1439.8,242.8,1422.5,242.8z"/>
	<path d="M1552.4,359.7c0-44.6,12.4-81.3,37.1-109.9s56.4-42.9,95.1-42.9c30.6,0,54.8,9.1,72.5,27.3c17.7,18.2,26.5,43.1,26.5,74.6
		c0,44.5-12.4,81-37.1,109.5c-24.7,28.5-56.4,42.8-95.1,42.8c-31.4,0-55.7-8.9-73-26.7C1561,416.8,1552.4,391.8,1552.4,359.7z
		 M1680.3,242.3c-12.7,0-24.1,2.8-34.3,8.4c-10.2,5.6-19,14.1-26.7,25.4c-7.6,11.5-13.7,25.1-18.1,40.7c-4.5,15.6-6.7,31-6.7,46
		c0,20.3,5,36,15.1,46.9c10.1,11,24.5,16.5,43.1,16.5c25.8,0,47-11.4,63.4-34.2c16.4-22.8,24.6-52.1,24.6-87.9
		c0-20.2-5.2-35.5-15.5-46C1715,247.6,1700,242.3,1680.3,242.3z"/>
</g>
<g>
	<path d="M806.6,214.2c-22.2-19.6-52.9-29.5-92.2-29.5c-24.2,0-46.6,4.6-67.2,13.9c-9.3,4.2-18.1,9.2-26.4,15.2
		c1.1,1.5,2.2,3,3.3,4.5c6.9,9.7,13.7,19.4,20.4,29.2c5.5-4.6,11.2-8.4,17.2-11.7c15.1-8.1,32.2-12.1,51.3-12.1
		c25.8,0,46.2,6.5,61,19.4c14.9,12.9,23.1,31.4,24.8,55.5H843C840.9,261.9,828.8,233.8,806.6,214.2z M711.4,352.1
		c7,11.9,13.8,23.8,20.5,35.8h60c-6.2,24.8-15.3,45.4-27.4,61.9c12.3,24.2,24.6,48.6,36.7,73h5.1l35.8-170.7H711.4z"/>
	<path d="M731.9,387.9h-43.5l7.1-35.8h15.8C718.4,363.9,725.2,375.9,731.9,387.9z"/>
</g>
<rect x="1020.3" y="1338.7" class="st0" width="1600.8" height="253"/>
<text transform="matrix(1 0 0 1 1020.2661 1478.2385)" class="st1 st2 st3">S  e  g  u  r  o  s</text>
<line class="st4" x1="1107.4" y1="613.4" x2="1208.8" y2="546.6"/>
</svg>
